<svg width="281" height="126" viewBox="0 0 281 126" fill="#00A6FB" xmlns="http://www.w3.org/2000/svg">
  <g clip-path="url(#clip0_31_47)">
    <path d="M240.103 49.4593C233.894 52.1692 227.308 53.6449 220.651 54.8532C213.705 56.1132 206.732 57.2092 199.812 58.59C190.969 60.3506 182.459 63.1295 174.503 67.3841C169.129 70.258 164.132 73.6669 159.495 77.5763C152.487 83.488 146.428 90.2453 141.036 97.5982C140.878 97.8226 140.684 98.0211 140.509 98.2282C140.377 98.1419 140.28 98.116 140.237 98.0556C139.56 97.2185 138.875 96.39 138.217 95.5443C132.017 87.5441 125.132 80.1999 116.938 74.1156C111.037 69.7401 104.679 66.1586 97.8029 63.4574C89.8115 60.3333 81.4775 58.5296 73.0382 57.0366C66.3201 55.8543 59.5845 54.6892 52.9016 53.2911C45.92 51.824 39.2985 49.3471 33.1776 45.6793C32.6771 45.3773 32.1589 45.0666 31.6496 44.7732C31.9043 45.5758 32.2292 46.2748 32.6419 46.9048C34.3105 49.4248 35.8649 52.0311 37.709 54.4217C42.9342 61.1791 49.5996 66.1069 57.6262 69.2655C63.5539 71.587 69.7626 72.8643 75.9713 74.1847C82.0571 75.4706 88.178 76.696 94.1936 78.2753C102.22 80.3811 109.491 84.0748 115.929 89.2874C116.21 89.5204 116.464 89.788 116.798 90.09C116.587 90.1418 116.526 90.1763 116.482 90.1677C116.297 90.1073 116.104 90.0382 115.92 89.9606C108.121 86.3532 99.8139 84.6099 91.357 83.3499C86.0792 82.5559 80.8101 81.6325 75.5674 80.6314C73.1348 80.1654 70.7725 79.38 68.1731 78.681C68.4014 78.9571 68.498 79.0866 68.6034 79.2074C71.8702 82.763 75.3654 86.077 79.2294 89.0112C84.0506 92.679 89.2845 95.6564 95.2386 97.0718C99.5944 98.1074 104.029 98.8669 108.464 99.54C116.578 100.774 123.402 104.287 128.961 110.233C132.816 114.358 136.03 118.923 138.963 123.696C139.429 124.447 139.912 125.18 140.447 126.009C140.658 125.663 140.781 125.465 140.895 125.275C143.978 119.924 147.473 114.858 151.732 110.336C156.439 105.348 161.98 101.706 168.839 100.282C171.912 99.6436 175.021 99.1344 178.13 98.6684C184.532 97.719 190.635 95.9585 196.229 92.6618C201.507 89.5636 206.082 85.6369 210.342 81.3132C211.141 80.5019 211.905 79.6562 212.695 78.819C211.273 79.0434 209.964 79.449 208.664 79.8201C201.735 81.7533 194.596 82.6249 187.509 83.6864C179.64 84.8601 171.974 86.7156 164.738 90.0641C164.509 90.1677 164.264 90.2195 164.026 90.2885C164.281 89.8052 164.615 89.5032 164.966 89.227C170.218 84.981 176.093 81.831 182.477 79.5612C188.659 77.3606 195.096 76.1523 201.498 74.806C206.776 73.6927 212.063 72.6053 217.288 71.2504C223.339 69.6797 228.95 67.108 234 63.4143C240.191 58.8748 244.845 53.0667 248.56 46.4733C248.859 45.9469 249.131 45.4032 249.412 44.8681C248.999 44.9285 248.718 45.1184 248.42 45.2737C245.662 46.6804 242.948 48.2252 240.112 49.468L240.103 49.4593Z" />
    <path d="M280.183 0.621366C277.751 2.61493 275.362 4.67753 272.851 6.59342C262.523 14.49 250.878 19.7889 238.338 23.2841C231.155 25.2949 223.813 26.6671 216.463 27.9616C209.077 29.2648 201.683 30.473 194.447 32.4321C186.991 34.4601 179.957 37.3512 173.765 41.9942C173.607 42.1064 173.414 42.1755 173.089 42.3308C173.203 42.0201 173.239 41.882 173.3 41.7612C176.031 36.4882 176.62 30.8786 175.996 25.0964C175.311 18.831 173.344 12.9107 170.867 7.12849C170.806 6.99904 170.718 6.86958 170.586 6.65383C170.428 8.43164 170.305 10.08 170.13 11.7197C169.41 18.8137 167.346 25.5021 163.579 31.6122C161.216 35.4526 158.617 39.1636 156.105 42.9263C152.32 48.6136 150.265 54.7841 150.608 61.6364C150.652 62.5599 150.748 63.4747 150.827 64.4067C152.232 62.1801 153.963 60.4023 155.938 58.8403C157.897 57.2868 159.881 55.7593 161.857 54.2231C161.91 54.2749 161.972 54.3267 162.015 54.3785C157.062 61.9212 153.655 70.1112 151.214 78.7155C151.275 78.75 151.346 78.7845 151.425 78.819C151.53 78.7327 151.644 78.6551 151.732 78.5515C157.862 72.3292 164.957 67.4014 172.685 63.302C181.968 58.3829 191.838 54.9049 201.902 51.9275C212.054 48.9242 222.285 46.1712 232.428 43.1075C241.412 40.389 250.123 36.9629 258.062 31.897C264.007 28.0997 269.083 23.4136 273.105 17.6486C275.74 13.8686 277.76 9.77794 279.314 5.46287C279.937 3.72821 280.429 1.94178 280.982 0.181229C280.587 0.26753 280.376 0.440133 280.166 0.621366H280.183Z" />
    <path d="M73.1436 50.2533C82.6016 52.9286 91.963 55.8715 100.947 59.85C110.414 64.0356 119.143 69.3173 126.721 76.3336C127.661 77.2052 128.601 78.0855 129.54 78.9658C127.046 70.2579 123.753 61.9212 118.8 54.2663C122.778 57.4422 127.38 59.9363 129.909 64.7951C129.953 64.1823 129.971 63.7508 130.015 63.3107C130.638 57.0366 129.54 51.0645 126.273 45.6189C123.762 41.4333 120.925 37.4462 118.282 33.3382C113.988 26.6585 111.511 19.366 110.756 11.504C110.598 9.92466 110.493 8.35397 110.352 6.68836C110.229 6.8437 110.168 6.89548 110.133 6.96452C107.287 13.5752 105.074 20.3585 104.714 27.5992C104.468 32.5442 105.259 37.2908 107.542 41.7526C107.63 41.9338 107.674 42.1237 107.744 42.3136C107.314 42.1927 107.015 41.9856 106.725 41.7699C103.379 39.2671 99.7261 37.2908 95.8709 35.6684C88.8103 32.6823 81.3458 31.0599 73.8374 29.6532C64.6165 27.9358 55.3429 26.5118 46.2274 24.2679C30.2884 20.324 15.8511 13.5321 3.38099 2.90836C2.29205 1.9763 1.20311 1.03562 0 0C0.0351272 0.284795 0.0351272 0.422877 0.0790362 0.552329C1.76514 6.92137 4.37334 12.8848 8.23733 18.2786C13.805 26.063 21.2783 31.6208 29.823 35.8669C38.6926 40.2769 48.1418 43.1766 57.6437 45.9123C62.7986 47.3967 67.9887 48.7862 73.1524 50.2533H73.1436Z" />
  </g>
  <defs>
    <clipPath id="clip0_31_47">
      <rect width="281" height="126" />
    </clipPath>
  </defs>
</svg>